# OBJ written from C:\Users\casan\OneDrive\Documentos\Uni_video\Proyecto_5\modelados\Star_medica_txt.obj
# Units	meters

o Base
v 37.8445 -0.85 46.7517
v 26.5816 -0.85 -46.3193
v 28.9642 -0.85 -46.6076
v 40.2271 -0.85 46.4634
v 37.8445 75.65 46.7517
v 26.5816 75.65 -46.3193
v 28.9642 75.65 -46.6076
v 40.2271 75.65 46.4634
v 28.7007 -0.85 -37.1323
v 27.7079 -0.85 -37.0122
v 37.7109 -0.85 37.3245
v 36.7182 -0.85 37.4446
v 27.7079 75.65 -37.0122
v 36.7182 75.65 37.4446
v 28.7007 75.65 -37.1323
v 37.7109 75.65 37.3245
v 60.0734 -0.85 -49.239
v 71.3363 -0.85 43.832
v 68.9536 -0.85 44.1203
v 57.6908 -0.85 -48.9507
v 60.0734 75.65 -49.239
v 71.3363 75.65 43.832
v 68.9536 75.65 44.1203
v 57.6908 75.65 -48.9507
v 70.21 -0.85 34.5249
v 61.1997 -0.85 -39.9319
v 70.21 75.65 34.5249
v 61.1997 75.65 -39.9319
v 60.2069 75.65 -39.8118
v 59.4761 -0.85 -40.8565
v 69.2172 -0.85 34.645
v 68.4864 75.65 33.6003
v 33.1146 75.65 -28.7058
v 40.0019 75.65 28.2083
v 57.8308 75.65 -30.8078
v 64.157 75.65 25.2852
v 33.1146 77.52 -28.7058
v 40.0019 77.52 28.2083
v 57.8308 77.52 -30.8078
v 64.157 77.52 25.2852
vn -0.225257 2.7586e-017 -1.86142
vn 0.225257 -2.7586e-017 1.86142
vn -0.714785 -6.38618e-019 0.0864985
vn 0.747826 -9.40323e-018 0.594047
vn 0.584539 1.05936e-017 -0.755281
vn 1.50785e-018 1.7 2.50113e-017
vn 0.714785 6.38618e-019 -0.0864985
vn -0.584495 0.0211237 0.755223
vn -0.215465 2.75921e-017 -1.86243
vn -0.744957 4.74235e-018 -0.277423
vn 0.215465 -2.75921e-017 1.86243
vn 0.719389 5.51479e-020 -0.047118
vt 0.859357 0.834367
vt 0.908643 0.834367
vt 0.908643 0.741633
vt 0.859357 0.741633
vt 0.883747 0.28235
vt 0.869913 0.28235
vt 0.869913 0.33765
vt 0.883747 0.33765
vt 0.904545 0.2525
vt 0.995454 0.2525
vt 0.995454 0.3675
vt 0.904545 0.3675
vt 0.985336 0.13
vt 0.886522 0.13
vt 0.886522 0.24
vt 0.985336 0.24
vt 0.8725 0.5125
vt 0.883864 0.5125
vt 0.883864 0.515923
vt 0.8725 0.520714
vt 0.974773 0.5125
vt 0.974773 0.515923
vt 0.986136 0.5125
vt 0.986136 0.520714
vt 1 0.825922
vt 0.928571 0.825922
vt 0.928571 0.650217
vt 1 0.650217
vt 0.0025 4.29153e-008
vt 0.087 4.29153e-008
vt 0.087 1
vt 0.0025 1
vt 0.763 4.29153e-008
vt 0.763 1
vt 0.8475 4.29153e-008
vt 0.8475 1
vt 0.873864 0.6275
vt 0.873864 0.619286
vt 0.885227 0.624077
vt 0.885227 0.6275
vt 0.868253 0.33765
vt 0.882087 0.33765
vt 0.882087 0.28235
vt 0.85263 0.993183
vt 0.99737 0.993183
vt 0.994621 0.842955
vt 0.85263 0.842955
vt 0.9875 0.619286
vt 0.9875 0.6275
vt 0.976136 0.6275
vt 0.974773 0.622024
vt 0.894646 0.527456
vt 0.964136 0.527456
vt 0.964136 0.610732
vt 0.895716 0.612301
vt 0.874664 0.24
vt 0.973478 0.13
vt 0.874664 0.13
vt 0.99737 0.842955
vt 0.994621 0.993183
vt 0 0.610879
vt 0 0.666667
vt 0.868498 0.696139
vt 0.904705 0.696139
vt 0.904705 0.72
vt 0.868498 0.72
vt 0.87075 0.38075
vt 0.97925 0.38075
vt 0.97925 0.48925
vt 0.87075 0.48925
vt 0.905388 0.696139
vt 0.905388 0.72
mtllib Star_medica_txt.mtl
usemtl TXT_Estrella_Medica
g Default
f 6/1/1 7/2/1 3/3/1 2/4/1
f 8/2/2 5/1/2 1/4/2 4/3/2
f 2/5/3 10/6/3 13/7/3 6/8/3
f 10/9/3 12/10/3 14/11/3 13/12/3
f 12/13/3 1/14/3 5/15/3 14/16/3
f 7/8/4 15/7/4 9/6/4 3/5/4
f 16/16/5 8/15/5 4/14/5 11/13/5
f 6/17/6 13/18/6 15/19/6 7/20/6
f 13/18/6 14/21/6 16/22/6 15/19/6
f 5/23/6 8/24/6 16/22/6 14/21/6
f 22/25/2 23/26/2 19/27/2 18/28/2
f 24/26/1 21/25/1 17/28/1 20/27/1
f 18/29/7 25/30/7 27/31/7 22/32/7
f 25/30/7 26/33/7 28/34/7 27/31/7
f 26/33/7 17/35/7 21/36/7 28/34/7
f 21/37/6 24/38/6 29/39/6 28/40/6
f 29/41/8 24/42/8 20/43/8 30/6/8
f 15/44/9 29/45/9 30/46/9 9/47/9
f 23/48/6 22/49/6 27/50/6 32/51/6
f 27/50/6 28/40/6 29/39/6 32/51/6
f 37/52/6 38/53/6 40/54/6 39/55/6
f 23/56/10 32/16/10 31/57/10 19/58/10
f 11/47/11 31/59/11 32/60/11 16/44/11
f 15/19/6 16/22/6 34/53/6 33/52/6
f 16/22/6 32/51/6 36/54/6 34/53/6
f 32/51/6 29/39/6 35/55/6 36/54/6
f 29/39/6 15/19/6 33/52/6 35/55/6
f 33/61/3 34/62/3 38/62/3 37/61/3
f 34/63/2 36/64/2 40/65/2 38/66/2
f 36/67/12 35/68/12 39/69/12 40/70/12
f 35/71/9 33/63/9 37/66/9 39/72/9

o Entrada_principal
v 62.8936 -0.8585 -25.8301
v 61.8236 -0.8585 -34.6719
v 64.8267 -0.8585 -35.0353
v 65.8967 -0.8585 -26.1936
v 62.8936 12.1465 -25.8301
v 61.8236 12.1465 -34.6719
v 64.8267 12.1465 -35.0353
v 65.8967 12.1465 -26.1936
v 61.3393 -0.8585 -38.6739
v 60.6974 -0.8585 -43.979
v 63.7005 -0.8585 -44.3424
v 64.3424 -0.8585 -39.0374
v 61.3393 6.9615 -38.6739
v 60.6974 6.9615 -43.979
v 63.7005 6.9615 -44.3424
v 64.3424 6.9615 -39.0374
v 69.2909 -0.8585 27.0342
v 68.2209 -0.8585 18.1924
v 71.224 -0.8585 17.829
v 72.294 -0.8585 26.6708
v 69.2909 12.1465 27.0342
v 68.2209 12.1465 18.1924
v 71.224 12.1465 17.829
v 72.294 12.1465 26.6708
v 70.7389 -0.8585 38.9996
v 70.0167 -0.8585 33.0315
v 73.0197 -0.8585 32.6681
v 73.742 -0.8585 38.6362
v 70.7389 12.1465 38.9996
v 70.0167 12.1465 33.0315
v 73.0197 12.1465 32.6681
v 73.742 12.1465 38.6362
v 68.2342 11.6507 18.198
v 62.9063 11.6507 -25.8294
v 67.9988 12.5514 -26.4457
v 73.3267 12.5514 17.5817
v 68.2342 14.2743 18.198
v 62.9063 14.2743 -25.8294
v 67.7413 13.3736 -26.4145
v 73.0692 13.3736 17.6129
vn -1.50785e-018 -1.7 -2.50113e-017
vn -0.992757 -8.8697e-019 0.120137
vn -0.225257 2.7586e-017 -1.86142
vn 0.992757 8.8697e-019 -0.120137
vn 0.225257 -2.7586e-017 1.86142
vn 1.50785e-018 1.7 2.50113e-017
vn 0.101989 -1.69101 -0.012342
vn 0.874803 0.803714 -0.105863
vn 0.107361 1.69003 -0.0129921
vt 0.25 0
vt 0.5 0
vt 0.5 0.333333
vt 0.25 0.333333
vt 1 0.666667
vt 0.75 0.666667
vt 0.75 0.333333
vt 1 0.333333
vt 0.5 0.666667
vt 0.25 0.666667
vt 0 0.666667
vt 0 0.333333
vt 0.25 1
vt 0.5 1
vt 0.872946 0.106114
vt 0.890936 0.106114
vt 0.890936 0.114699
vt 0.872946 0.114699
vt 0.909825 0.100508
vt 0.891835 0.100508
vt 0.891835 0.077805
vt 0.909825 0.077805
vt 0.952345 0.058008
vt 0.943759 0.058008
vt 0.943759 0.035305
vt 0.952345 0.035305
vt 0.890936 0.100508
vt 0.872946 0.100508
vt 0.872946 0.077805
vt 0.890936 0.077805
vt 0.919289 0.100508
vt 0.910704 0.100508
vt 0.910704 0.077805
vt 0.919289 0.077805
vt 0.928713 0.101391
vt 0.928713 0.109977
vt 0.910724 0.109977
vt 0.910724 0.101391
vt 0.891828 0.106114
vt 0.905109 0.106114
vt 0.905109 0.114699
vt 0.891828 0.114699
vt 0.957054 0.0816191
vt 0.943773 0.0816191
vt 0.943773 0.0589161
vt 0.957054 0.0589161
vt 0.928734 0.100508
vt 0.920148 0.100508
vt 0.920148 0.077805
vt 0.928734 0.077805
vt 0.942887 0.100508
vt 0.929606 0.100508
vt 0.929606 0.077805
vt 0.942887 0.077805
vt 0.952345 0.10523
vt 0.943759 0.10523
vt 0.943759 0.0825272
vt 0.952345 0.0825272
vt 0.942887 0.101391
vt 0.942887 0.109977
vt 0.929606 0.109977
vt 0.929606 0.101391
vt 0.872962 0.0589117
vt 0.942864 0.0589117
vt 0.942864 0.0769012
vt 0.872962 0.0769012
vt 0.942864 0.0580685
vt 0.872962 0.0580685
vt 0.872962 0.0541333
vt 0.942864 0.0541333
vt 0.890936 0.105291
vt 0.873856 0.10394
vt 0.872946 0.102706
vt 0.890936 0.101356
vt 0.872962 0.0523801
vt 0.942864 0.0523801
vt 0.942864 0.0532901
vt 0.872962 0.0532901
vt 0.908915 0.10394
vt 0.891835 0.105291
vt 0.891835 0.101356
vt 0.909825 0.102706
vt 0.942864 0.0353006
vt 0.872962 0.0353006
mtllib Star_medica_txt.mtl
usemtl TXT_Estrella_Medica_Entrada_Cubos
g Default
f 49/73/13 50/74/13 51/75/13 52/76/13
f 53/77/14 54/78/14 50/79/14 49/80/14
f 54/78/15 55/81/15 51/75/15 50/79/15
f 55/81/16 56/82/16 52/76/16 51/75/16
f 56/82/17 53/83/17 49/84/17 52/76/17
f 53/85/18 56/82/18 55/81/18 54/86/18
f 65/73/13 66/74/13 67/75/13 68/76/13
f 69/77/14 70/78/14 66/79/14 65/80/14
f 70/78/15 71/81/15 67/75/15 66/79/15
f 71/81/16 72/82/16 68/76/16 67/75/16
f 72/82/17 69/83/17 65/84/17 68/76/17
f 69/85/18 72/82/18 71/81/18 70/86/18
usemtl TXT_Estrella_Medica_Entrada
f 41/87/13 42/88/13 43/89/13 44/90/13
f 45/91/14 46/92/14 42/93/14 41/94/14
f 46/95/15 47/96/15 43/97/15 42/98/15
f 47/99/16 48/100/16 44/101/16 43/102/16
f 48/103/17 45/104/17 41/105/17 44/106/17
f 45/107/18 48/108/18 47/109/18 46/110/18
f 57/111/13 58/112/13 59/113/13 60/114/13
f 61/115/14 62/116/14 58/117/14 57/118/14
f 62/119/15 63/120/15 59/121/15 58/122/15
f 63/123/16 64/124/16 60/125/16 59/126/16
f 64/127/17 61/128/17 57/129/17 60/130/17
f 61/131/18 64/132/18 63/133/18 62/134/18
f 73/135/19 74/136/19 75/137/19 76/138/19
f 77/139/14 78/140/14 74/141/14 73/142/14
f 78/143/15 79/144/15 75/145/15 74/146/15
f 79/147/20 80/148/20 76/149/20 75/150/20
f 80/151/17 77/152/17 73/153/17 76/154/17
f 77/155/21 80/148/21 79/147/21 78/156/21

o Estacionamiento
v 124.714 -0.8585 16.4987
v 119.999 -0.8585 17.0694
v 119.842 -0.8585 15.7742
v 124.557 -0.8585 15.2035
v 124.714 12.1465 16.4987
v 119.999 12.1465 17.0694
v 119.842 12.1465 15.7742
v 124.557 12.1465 15.2035
v 99.5311 -0.8585 15.054
v 100.446 -0.8585 22.6136
v 99.7551 -0.8585 22.6972
v 98.8403 -0.8585 15.1376
v 99.5311 10.6165 15.054
v 100.446 10.6165 22.6136
v 99.7551 10.6165 22.6972
v 98.8403 10.6165 15.1376
v 83.1931 -0.8585 -37.5844
v 87.9087 -0.8585 -38.1551
v 88.0654 -0.8585 -36.8599
v 83.3498 -0.8585 -36.2893
v 83.1931 12.1465 -37.5844
v 87.9087 12.1465 -38.1551
v 88.0654 12.1465 -36.8599
v 83.3498 12.1465 -36.2893
v 108.376 -0.8585 -36.1397
v 107.461 -0.8585 -43.6993
v 108.152 -0.8585 -43.7829
v 109.067 -0.8585 -36.2233
v 108.376 10.6165 -36.1397
v 107.461 10.6165 -43.6993
v 108.152 10.6165 -43.7829
v 109.067 10.6165 -36.2233
vn -1.50785e-018 -1.7 -2.50113e-017
vn 0.225257 -2.7586e-017 1.86142
vn -0.992757 -8.8697e-019 0.120137
vn -0.225257 2.7586e-017 -1.86142
vn 0.992757 8.8697e-019 -0.120137
vn 1.50785e-018 1.7 2.50113e-017
vt 0.25 0
vt 0.5 0
vt 0.5 0.333333
vt 0.25 0.333333
vt 1 0.666667
vt 0.75 0.666667
vt 0.75 0.333333
vt 1 0.333333
vt 0.5 0.666667
vt 0.25 0.666667
vt 0 0.666667
vt 0 0.333333
vt 0.25 1
vt 0.5 1
mtllib Star_medica_txt.mtl
usemtl Default
g Default
f 81/157/22 82/158/22 83/159/22 84/160/22
f 85/161/23 86/162/23 82/163/23 81/164/23
f 86/162/24 87/165/24 83/159/24 82/163/24
f 87/165/25 88/166/25 84/160/25 83/159/25
f 88/166/26 85/167/26 81/168/26 84/160/26
f 85/169/27 88/166/27 87/165/27 86/170/27
f 89/157/22 90/158/22 91/159/22 92/160/22
f 93/161/26 94/162/26 90/163/26 89/164/26
f 94/162/23 95/165/23 91/159/23 90/163/23
f 95/165/24 96/166/24 92/160/24 91/159/24
f 96/166/25 93/167/25 89/168/25 92/160/25
f 93/169/27 96/166/27 95/165/27 94/170/27
f 97/157/22 98/158/22 99/159/22 100/160/22
f 101/161/25 102/162/25 98/163/25 97/164/25
f 102/162/26 103/165/26 99/159/26 98/163/26
f 103/165/23 104/166/23 100/160/23 99/159/23
f 104/166/24 101/167/24 97/168/24 100/160/24
f 101/169/27 104/166/27 103/165/27 102/170/27
f 105/157/22 106/158/22 107/159/22 108/160/22
f 109/161/24 110/162/24 106/163/24 105/164/24
f 110/162/25 111/165/25 107/159/25 106/163/25
f 111/165/26 112/166/26 108/160/26 107/159/26
f 112/166/23 109/167/23 105/168/23 108/160/23
f 109/169/27 112/166/27 111/165/27 110/170/27
